<?xml version="1.0" encoding="UTF-8" standalone="no"?>
<!DOCTYPE svg PUBLIC "-//W3C//DTD SVG 1.1//EN" "http://www.w3.org/Graphics/SVG/1.1/DTD/svg11.dtd">
<svg width="408px" height="113px" version="1.1" xmlns="http://www.w3.org/2000/svg" xmlns:xlink="http://www.w3.org/1999/xlink" xml:space="preserve" xmlns:serif="http://www.serif.com/" style="fill-rule:evenodd;clip-rule:evenodd;stroke-linejoin:round;stroke-miterlimit:2;">
    <g>
        <rect x="0" y="0" width="408" height="113" style="fill:none;"/>
        <g transform="matrix(1,0,0,1,-64.4904,1.28877)">
            <text x="341.933px" y="63.691px" style="font-family:'Poppins-Regular', 'Poppins';font-size:40px;fill:rgb(46,56,70);">CRM</text>
        </g>
        <g transform="matrix(1,0,0,1,-45.0208,30.4649)">
            <text x="42.101px" y="35.635px" style="font-family:'Poppins-Regular', 'Poppins';font-size:40px;fill:rgb(46,56,70);">Powered by</text>
        </g>
        <g id="Group-20.svg" serif:id="Group 20.svg" transform="matrix(0.439356,0,0,0.439356,230.48,56.5)">
            <g transform="matrix(1,0,0,1,-89.5,-72.5)">
                <g>
                    <path d="M15.064,136.563L14.019,131.119L8.056,131.119L7.011,136.563L1.707,136.563L7.205,110.001L14.987,110.001L20.485,136.563L15.064,136.563ZM11.154,115.02L10.921,115.02L8.831,126.525L13.206,126.525L11.154,115.02Z" style="fill:rgb(47,55,69);fill-rule:nonzero;"/>
                    <path d="M21.026,116.873L25.75,116.873L25.904,119.189L26.214,119.189C26.756,117.439 28.098,116.564 30.241,116.564C31.506,116.564 32.487,116.86 33.183,117.452C33.906,118.018 34.422,119.022 34.732,120.463C35.042,121.905 35.197,123.977 35.197,126.679C35.197,129.33 35.055,131.377 34.771,132.818C34.487,134.259 33.997,135.302 33.3,135.945C32.603,136.563 31.609,136.872 30.318,136.872C28.228,136.872 26.898,136.061 26.33,134.439L26.021,134.439L26.021,144.13L21.026,144.13L21.026,116.873ZM28.073,132.393C28.77,132.393 29.247,132.29 29.505,132.084C29.789,131.878 29.97,131.415 30.047,130.695C30.151,129.948 30.202,128.623 30.202,126.718C30.202,124.813 30.151,123.501 30.047,122.78C29.97,122.034 29.789,121.557 29.505,121.351C29.247,121.146 28.77,121.043 28.073,121.043C27.531,121.043 27.118,121.146 26.834,121.351C26.55,121.532 26.356,121.892 26.253,122.432C26.098,123.076 26.021,124.504 26.021,126.718C26.021,128.726 26.072,130.051 26.175,130.695C26.279,131.364 26.472,131.814 26.756,132.046C27.04,132.277 27.479,132.393 28.073,132.393Z" style="fill:rgb(47,55,69);fill-rule:nonzero;"/>
                    <path d="M36.757,116.873L41.48,116.873L41.635,119.189L41.945,119.189C42.487,117.439 43.829,116.564 45.972,116.564C47.236,116.564 48.217,116.86 48.914,117.452C49.637,118.018 50.153,119.022 50.463,120.463C50.773,121.905 50.927,123.977 50.927,126.679C50.927,129.33 50.786,131.377 50.502,132.818C50.218,134.259 49.727,135.302 49.03,135.945C48.333,136.563 47.34,136.872 46.049,136.872C43.958,136.872 42.629,136.061 42.061,134.439L41.751,134.439L41.751,144.13L36.757,144.13L36.757,116.873ZM43.803,132.393C44.5,132.393 44.978,132.29 45.236,132.084C45.52,131.878 45.701,131.415 45.778,130.695C45.881,129.948 45.933,128.623 45.933,126.718C45.933,124.813 45.881,123.501 45.778,122.78C45.701,122.034 45.52,121.557 45.236,121.351C44.978,121.146 44.5,121.043 43.803,121.043C43.261,121.043 42.848,121.146 42.564,121.351C42.28,121.532 42.087,121.892 41.984,122.432C41.829,123.076 41.751,124.504 41.751,126.718C41.751,128.726 41.803,130.051 41.906,130.695C42.009,131.364 42.203,131.814 42.487,132.046C42.771,132.277 43.21,132.393 43.803,132.393Z" style="fill:rgb(47,55,69);fill-rule:nonzero;"/>
                    <path d="M60.425,125.676L60.425,121.12L67.742,121.12L67.742,136.061C66.839,136.293 65.742,136.486 64.451,136.64C63.161,136.795 61.96,136.872 60.85,136.872C58.398,136.872 56.566,136.511 55.353,135.791C54.165,135.044 53.339,133.732 52.875,131.853C52.436,129.948 52.216,127.091 52.216,123.282C52.216,119.498 52.449,116.667 52.913,114.788C53.404,112.883 54.281,111.558 55.546,110.812C56.811,110.065 58.708,109.692 61.238,109.692C62.27,109.692 63.393,109.769 64.606,109.924C65.819,110.078 66.852,110.258 67.704,110.464L67.704,114.827C65.484,114.518 63.87,114.363 62.864,114.363C61.109,114.363 59.895,114.505 59.224,114.788C58.579,115.071 58.127,115.805 57.869,116.989C57.637,118.147 57.521,120.245 57.521,123.282C57.521,126.113 57.598,128.134 57.753,129.343C57.908,130.527 58.205,131.325 58.644,131.737C59.108,132.149 59.883,132.355 60.967,132.355C61.199,132.355 61.818,132.316 62.825,132.239L62.825,125.676L60.425,125.676Z" style="fill:rgb(47,55,69);fill-rule:nonzero;"/>
                    <path d="M83.125,128.262L74.336,128.262C74.336,129.729 74.401,130.746 74.53,131.312C74.659,131.878 74.956,132.252 75.42,132.432C75.885,132.612 76.724,132.702 77.937,132.702C78.918,132.702 80.492,132.625 82.661,132.47L82.661,136.293C81.964,136.447 81.06,136.576 79.95,136.679C78.84,136.807 77.782,136.872 76.775,136.872C74.478,136.872 72.8,136.537 71.742,135.868C70.71,135.173 70.051,134.156 69.767,132.818C69.483,131.48 69.342,129.459 69.342,126.757C69.342,124.105 69.483,122.098 69.767,120.734C70.051,119.37 70.697,118.34 71.703,117.645C72.71,116.924 74.297,116.564 76.466,116.564C78.582,116.564 80.105,116.899 81.034,117.568C81.989,118.211 82.57,119.189 82.777,120.502C83.009,121.815 83.125,123.9 83.125,126.757L83.125,128.262ZM76.427,120.695C75.782,120.695 75.317,120.785 75.033,120.965C74.775,121.146 74.594,121.519 74.491,122.085C74.388,122.651 74.336,123.591 74.336,124.903L78.44,124.903C78.44,123.591 78.389,122.651 78.285,122.085C78.182,121.493 78.001,121.12 77.743,120.965C77.485,120.785 77.046,120.695 76.427,120.695Z" style="fill:rgb(47,55,69);fill-rule:nonzero;"/>
                    <path d="M93.649,125.907C93.649,124.26 93.61,123.127 93.533,122.51C93.455,121.892 93.3,121.506 93.068,121.351C92.836,121.171 92.397,121.081 91.752,121.081C91.081,121.081 90.603,121.21 90.319,121.467C90.061,121.725 89.893,122.214 89.816,122.934C89.738,123.629 89.7,124.813 89.7,126.486L89.7,136.563L84.705,136.563L84.705,116.873L89.429,116.873L89.583,119.228L89.855,119.228C90.216,118.25 90.771,117.568 91.519,117.182C92.268,116.77 93.171,116.564 94.23,116.564C95.469,116.564 96.398,116.809 97.017,117.298C97.663,117.787 98.089,118.533 98.295,119.537C98.527,120.515 98.643,121.879 98.643,123.629L98.643,136.563L93.649,136.563L93.649,125.907Z" style="fill:rgb(47,55,69);fill-rule:nonzero;"/>
                    <path d="M109.519,136.477C108.46,136.477 107.324,136.425 106.11,136.321C104.922,136.243 103.889,136.125 103.012,135.969L103.012,133.938C103.915,134.068 104.909,134.185 105.994,134.29C107.104,134.368 108.047,134.407 108.821,134.407C109.854,134.407 110.681,134.342 111.3,134.211C111.946,134.055 112.501,133.782 112.966,133.391C113.379,133.053 113.65,132.519 113.779,131.789C113.908,131.06 113.973,130.097 113.973,128.899C113.973,127.31 113.921,126.217 113.818,125.618C113.715,124.993 113.457,124.563 113.043,124.329C112.63,124.068 111.894,123.847 110.836,123.664L106.071,122.922C104.987,122.766 104.186,122.414 103.67,121.868C103.154,121.321 102.818,120.631 102.663,119.797C102.534,118.938 102.469,117.766 102.469,116.282C102.469,113.651 103.012,111.776 104.096,110.657C105.206,109.537 107.014,108.977 109.519,108.977C110.577,108.977 111.636,109.029 112.695,109.133C113.779,109.237 114.631,109.367 115.251,109.524L115.251,111.516C114.528,111.386 113.676,111.282 112.695,111.203C111.714,111.099 110.81,111.047 109.983,111.047C108.821,111.047 107.892,111.151 107.195,111.36C106.523,111.542 106.007,111.854 105.645,112.297C105.284,112.74 105.039,113.274 104.909,113.899C104.806,114.498 104.754,115.292 104.754,116.282C104.754,117.558 104.806,118.482 104.909,119.055C105.039,119.628 105.258,120.032 105.568,120.266C105.904,120.5 106.459,120.683 107.233,120.813L111.726,121.516C112.888,121.724 113.779,122.011 114.399,122.375C115.045,122.74 115.535,123.365 115.871,124.25C116.129,124.927 116.258,126.386 116.258,128.625C116.258,130.579 116.052,132.115 115.639,133.235C115.225,134.355 114.528,135.175 113.547,135.696C112.592,136.217 111.249,136.477 109.519,136.477Z" style="fill:rgb(47,55,69);fill-rule:nonzero;"/>
                    <path d="M119.844,136.165L119.844,118.157L116.861,118.157L116.861,116.243L119.844,116.243L119.844,110.461L122.013,110.461L122.013,116.243L125.46,116.243L125.46,118.157L122.013,118.157L122.013,136.165L119.844,136.165Z" style="fill:rgb(47,55,69);fill-rule:nonzero;"/>
                    <path d="M137.764,133.313L137.57,133.313C137.26,134.303 136.718,135.084 135.943,135.657C135.194,136.204 134.058,136.477 132.535,136.477C131.037,136.477 129.901,136.23 129.126,135.735C128.377,135.214 127.874,134.42 127.616,133.352C127.357,132.284 127.228,130.761 127.228,128.782L127.228,116.243L129.397,116.243L129.397,128.118C129.397,130.071 129.488,131.477 129.668,132.336C129.875,133.196 130.236,133.769 130.753,134.055C131.269,134.342 132.121,134.485 133.309,134.485C134.626,134.485 135.595,134.172 136.214,133.547C136.834,132.896 137.208,132.05 137.338,131.008C137.492,129.967 137.57,128.482 137.57,126.555L137.57,116.243L139.739,116.243L139.739,136.165L137.919,136.165L137.764,133.313Z" style="fill:rgb(47,55,69);fill-rule:nonzero;"/>
                    <path d="M148.573,136.477C146.972,136.477 145.759,136.191 144.932,135.618C144.132,135.045 143.564,134.042 143.228,132.61C142.918,131.178 142.763,129.042 142.763,126.204C142.763,123.365 142.918,121.23 143.228,119.797C143.538,118.365 144.093,117.362 144.894,116.789C145.72,116.216 146.946,115.93 148.573,115.93C149.864,115.93 150.897,116.151 151.672,116.594C152.472,117.011 153.04,117.727 153.376,118.743L153.57,118.743L153.57,107.141L155.739,107.141L155.739,136.165L153.88,136.165L153.725,133.313L153.531,133.313C153.17,134.563 152.563,135.409 151.711,135.852C150.858,136.269 149.813,136.477 148.573,136.477ZM149.27,134.485C150.355,134.485 151.207,134.276 151.827,133.86C152.446,133.443 152.873,132.792 153.105,131.907C153.286,131.125 153.402,130.279 153.454,129.368C153.531,128.456 153.57,127.271 153.57,125.813C153.57,123.625 153.441,121.998 153.182,120.93C152.924,119.836 152.485,119.068 151.865,118.625C151.246,118.157 150.342,117.922 149.154,117.922C147.863,117.922 146.933,118.118 146.365,118.508C145.797,118.873 145.41,119.615 145.203,120.735C145.023,121.828 144.932,123.651 144.932,126.204C144.932,128.756 145.023,130.592 145.203,131.711C145.41,132.805 145.797,133.547 146.365,133.938C146.959,134.303 147.928,134.485 149.27,134.485Z" style="fill:rgb(47,55,69);fill-rule:nonzero;"/>
                    <path d="M159.308,110.071L159.308,107.141L161.632,107.141L161.632,110.071L159.308,110.071ZM159.385,136.165L159.385,116.243L161.555,116.243L161.555,136.165L159.385,136.165Z" style="fill:rgb(47,55,69);fill-rule:nonzero;"/>
                    <path d="M171.138,136.477C169.072,136.477 167.588,136.204 166.684,135.657C165.806,135.11 165.225,134.172 164.941,132.844C164.683,131.49 164.554,129.289 164.554,126.243C164.554,123.17 164.683,120.956 164.941,119.602C165.225,118.248 165.806,117.297 166.684,116.75C167.588,116.203 169.072,115.93 171.138,115.93C173.204,115.93 174.689,116.203 175.593,116.75C176.496,117.297 177.077,118.248 177.336,119.602C177.594,120.956 177.723,123.17 177.723,126.243C177.723,129.289 177.594,131.49 177.336,132.844C177.077,134.172 176.496,135.11 175.593,135.657C174.689,136.204 173.204,136.477 171.138,136.477ZM171.138,134.563C172.61,134.563 173.63,134.368 174.198,133.977C174.792,133.586 175.167,132.87 175.321,131.829C175.476,130.761 175.554,128.899 175.554,126.243C175.554,123.586 175.476,121.724 175.321,120.657C175.167,119.589 174.792,118.86 174.198,118.469C173.604,118.052 172.584,117.844 171.138,117.844C169.692,117.844 168.672,118.052 168.078,118.469C167.484,118.86 167.11,119.589 166.955,120.657C166.8,121.724 166.723,123.586 166.723,126.243C166.723,128.899 166.8,130.761 166.955,131.829C167.11,132.87 167.472,133.586 168.04,133.977C168.634,134.368 169.666,134.563 171.138,134.563Z" style="fill:rgb(47,55,69);fill-rule:nonzero;"/>
                </g>
                <path d="M84.366,1.275L34.869,1.275L68.279,99.488L117.776,99.488L84.366,1.275Z" style="fill:rgb(47,55,69);fill-rule:nonzero;"/>
                <path d="M82.29,4.126L113.76,96.637L70.356,96.637L38.885,4.126L82.29,4.126ZM84.366,1.275L117.776,99.488L68.279,99.488L34.869,1.275L84.366,1.275Z" style="fill:white;"/>
                <path d="M33.327,1.275L82.062,1.275L49.166,99.488L0.431,99.488L33.327,1.275Z" style="fill:rgb(47,55,69);fill-rule:nonzero;"/>
                <path d="M35.371,4.126L4.384,96.637L47.121,96.637L78.108,4.126L35.371,4.126ZM33.327,1.275L0.431,99.488L49.166,99.488L82.062,1.275L33.327,1.275Z" style="fill:white;"/>
                <path d="M94.259,14.031L179,99.489C145.289,99.489 142.618,99.311 128.845,99.311C101.599,99.311 79.512,77.023 79.512,49.53C79.512,35.631 85.156,23.062 94.259,14.031Z" style="fill:rgb(47,55,69);"/>
                <path d="M93.644,14.652C93.178,15.131 92.722,15.619 92.275,16.116C84.344,24.95 79.512,36.67 79.512,49.53C79.512,77.023 101.599,99.311 128.845,99.311C134.216,99.311 137.898,99.338 142.392,99.371C148.941,99.419 157.213,99.48 174.948,99.488C176.247,99.488 177.596,99.489 179,99.489L94.259,14.031C94.052,14.236 93.847,14.443 93.644,14.652ZM172.081,96.596L94.303,18.161C86.886,26.472 82.375,37.467 82.375,49.53C82.375,75.427 103.18,96.421 128.845,96.421C134.227,96.421 137.921,96.448 142.417,96.481C143.684,96.491 145.015,96.5 146.465,96.51C152.095,96.548 159.542,96.586 172.081,96.596Z" style="fill:white;"/>
                <path d="M163.694,14.69L94.201,84.182C84.725,74.676 79.811,62.8 79.512,49.14C79.512,22.001 101.513,0 128.652,0C142.372,0 154.779,5.623 163.694,14.69Z" style="fill:rgb(47,55,69);"/>
                <path d="M163.103,14.099C162.623,13.627 162.134,13.166 161.636,12.714C152.916,4.813 141.346,0 128.652,0C101.513,0 79.512,22.001 79.512,49.14C79.79,61.825 84.047,72.97 92.241,82.109C92.871,82.812 93.524,83.503 94.201,84.181C94.201,84.182 94.201,84.182 94.201,84.182L163.694,14.69C163.498,14.491 163.301,14.294 163.103,14.099ZM159.616,14.733C151.412,7.345 140.559,2.852 128.652,2.852C103.098,2.852 82.381,23.559 82.364,49.109C82.633,61.069 86.611,71.504 94.261,80.089L159.616,14.733Z" style="fill:white;"/>
                <path d="M179,99.488L179,49.744L129.256,99.488L179,99.488Z" style="fill:rgb(47,55,69);fill-rule:nonzero;"/>
                <path d="M179,49.744L129.256,99.488L179,99.488L179,49.744ZM176.113,56.714L136.227,96.6L176.113,96.6L176.113,56.714Z" style="fill:white;"/>
            </g>
        </g>
    </g>
</svg>
