<svg width="152" height="34" viewBox="0 0 152 34" fill="none" xmlns="http://www.w3.org/2000/svg">
<path fill-rule="evenodd" clip-rule="evenodd" d="M20.2392 2.68426C20.2392 0.752844 18.18 -0.481265 16.4767 0.429343L3 7.63428V25.1245C3 27.0562 5.05973 28.2903 6.76303 27.3792L6.79165 27.3638L9.30542 25.769V28.1657C9.30542 29.4363 10.6601 30.248 11.7805 29.6489L14.7363 28.0682V31.2061C14.7363 32.4766 16.091 33.2884 17.2114 32.6893L30.2255 25.7296V8.76581C30.2255 7.49524 28.8708 6.68346 27.7504 7.28264L24.7946 8.86335V5.72541C24.7946 4.45484 23.4399 3.64306 22.3195 4.24224L20.2392 5.35475V2.68426ZM18.4892 6.29062V2.68426C18.4892 2.07473 17.8393 1.68526 17.3018 1.97263L4.75 8.68309V25.1245C4.75 25.7252 5.38101 26.1121 5.91373 25.8484L9.30542 23.6965V11.2019L18.4892 6.29062ZM16.4863 21.1867V25.1469L23.0446 21.6403V11.7843L19.3643 13.7522V19.6488L16.4863 21.1867ZM14.7363 22.122V26.0836L11.0554 28.0521V12.2506L23.0446 5.83899V9.79922L15.3109 13.9351L14.7363 14.2423V14.2423V14.2429V22.122ZM16.4863 19.2025L17.6143 18.5997V14.6891L16.4863 15.2919V19.2025ZM24.7946 22.6892V22.689L24.7949 22.6888V10.8477L28.4755 8.87939V24.6809L16.4863 31.0925V27.1323L24.7946 22.6892Z" fill="#0B3BD9"/>
<path d="M46.6386 24.33C45.5746 24.33 44.5876 24.141 43.6776 23.763C42.7816 23.371 41.9976 22.832 41.3256 22.146C40.6536 21.446 40.1356 20.641 39.7716 19.731C39.4076 18.807 39.2256 17.82 39.2256 16.77C39.2256 15.72 39.4076 14.74 39.7716 13.83C40.1356 12.906 40.6536 12.101 41.3256 11.415C41.9976 10.729 42.7816 10.19 43.6776 9.798C44.5876 9.406 45.5746 9.21 46.6386 9.21C47.8286 9.21 48.8576 9.406 49.7256 9.798C50.5936 10.19 51.3636 10.722 52.0356 11.394L50.3976 13.032C49.9636 12.556 49.4316 12.185 48.8016 11.919C48.1856 11.653 47.4646 11.52 46.6386 11.52C45.9106 11.52 45.2456 11.646 44.6436 11.898C44.0416 12.15 43.5166 12.514 43.0686 12.99C42.6346 13.452 42.2986 14.005 42.0606 14.649C41.8226 15.293 41.7036 16 41.7036 16.77C41.7036 17.54 41.8226 18.247 42.0606 18.891C42.2986 19.535 42.6346 20.095 43.0686 20.571C43.5166 21.033 44.0416 21.39 44.6436 21.642C45.2456 21.894 45.9106 22.02 46.6386 22.02C47.5346 22.02 48.2906 21.887 48.9066 21.621C49.5366 21.341 50.0686 20.963 50.5026 20.487L52.1406 22.125C51.4686 22.811 50.6776 23.35 49.7676 23.742C48.8576 24.134 47.8146 24.33 46.6386 24.33Z" fill="#202740"/>
<path d="M57.9144 24.33C57.0044 24.33 56.1784 24.099 55.4364 23.637C54.7084 23.175 54.1274 22.552 53.6934 21.768C53.2734 20.97 53.0634 20.081 53.0634 19.101C53.0634 18.107 53.2734 17.218 53.6934 16.434C54.1274 15.636 54.7084 15.006 55.4364 14.544C56.1784 14.068 57.0044 13.83 57.9144 13.83C58.6844 13.83 59.3634 13.998 59.9514 14.334C60.5534 14.656 61.0294 15.104 61.3794 15.678C61.7294 16.252 61.9044 16.903 61.9044 17.631V20.529C61.9044 21.257 61.7294 21.908 61.3794 22.482C61.0434 23.056 60.5744 23.511 59.9724 23.847C59.3704 24.169 58.6844 24.33 57.9144 24.33ZM58.2924 22.146C59.1464 22.146 59.8324 21.859 60.3504 21.285C60.8824 20.711 61.1484 19.976 61.1484 19.08C61.1484 18.478 61.0294 17.946 60.7914 17.484C60.5534 17.022 60.2174 16.665 59.7834 16.413C59.3634 16.147 58.8664 16.014 58.2924 16.014C57.7324 16.014 57.2354 16.147 56.8014 16.413C56.3814 16.665 56.0454 17.022 55.7934 17.484C55.5554 17.946 55.4364 18.478 55.4364 19.08C55.4364 19.682 55.5554 20.214 55.7934 20.676C56.0454 21.138 56.3814 21.502 56.8014 21.768C57.2354 22.02 57.7324 22.146 58.2924 22.146ZM61.0014 24.12V21.411L61.4004 18.954L61.0014 16.518V14.04H63.3114V24.12H61.0014Z" fill="#202740"/>
<path d="M65.8751 24.12V14.04H68.1851V24.12H65.8751ZM68.1851 18.513L67.3871 18.114C67.3871 16.84 67.6671 15.811 68.2271 15.027C68.8011 14.229 69.6621 13.83 70.8101 13.83C71.3141 13.83 71.7691 13.921 72.1751 14.103C72.5811 14.285 72.9591 14.579 73.3091 14.985L71.7971 16.539C71.6151 16.343 71.4121 16.203 71.1881 16.119C70.9641 16.035 70.7051 15.993 70.4111 15.993C69.7671 15.993 69.2351 16.196 68.8151 16.602C68.3951 17.008 68.1851 17.645 68.1851 18.513Z" fill="#202740"/>
<path d="M78.8022 24.33C77.7942 24.33 76.8842 24.106 76.0722 23.658C75.2742 23.196 74.6372 22.566 74.1612 21.768C73.6992 20.97 73.4682 20.074 73.4682 19.08C73.4682 18.086 73.6992 17.197 74.1612 16.413C74.6232 15.615 75.2462 14.985 76.0302 14.523C76.8282 14.061 77.7102 13.83 78.6762 13.83C79.6142 13.83 80.4402 14.047 81.1542 14.481C81.8822 14.915 82.4492 15.51 82.8552 16.266C83.2752 17.022 83.4852 17.883 83.4852 18.849C83.4852 19.017 83.4712 19.192 83.4432 19.374C83.4292 19.542 83.4012 19.731 83.3592 19.941H75.0852V18.051H82.1622L81.3012 18.807C81.2732 18.191 81.1542 17.673 80.9442 17.253C80.7342 16.833 80.4332 16.511 80.0412 16.287C79.6632 16.063 79.1942 15.951 78.6342 15.951C78.0462 15.951 77.5352 16.077 77.1012 16.329C76.6672 16.581 76.3312 16.938 76.0932 17.4C75.8552 17.848 75.7362 18.387 75.7362 19.017C75.7362 19.647 75.8622 20.2 76.1142 20.676C76.3662 21.152 76.7232 21.523 77.1852 21.789C77.6472 22.041 78.1792 22.167 78.7812 22.167C79.2992 22.167 79.7752 22.076 80.2092 21.894C80.6572 21.712 81.0352 21.446 81.3432 21.096L82.8132 22.587C82.3232 23.161 81.7282 23.595 81.0282 23.889C80.3282 24.183 79.5862 24.33 78.8022 24.33Z" fill="#202740"/>
<path d="M87.311 18.576V16.476H90.986C91.49 16.476 91.931 16.378 92.309 16.182C92.701 15.972 93.009 15.685 93.233 15.321C93.457 14.943 93.569 14.502 93.569 13.998C93.569 13.494 93.457 13.06 93.233 12.696C93.009 12.318 92.701 12.031 92.309 11.835C91.931 11.625 91.49 11.52 90.986 11.52H87.311V9.42H91.112C92.036 9.42 92.862 9.609 93.59 9.987C94.332 10.365 94.913 10.897 95.333 11.583C95.767 12.269 95.984 13.074 95.984 13.998C95.984 14.922 95.767 15.727 95.333 16.413C94.913 17.099 94.332 17.631 93.59 18.009C92.862 18.387 92.036 18.576 91.112 18.576H87.311ZM85.652 24.12V9.42H88.067V24.12H85.652Z" fill="#202740"/>
<path d="M102.118 24.33C101.138 24.33 100.249 24.099 99.4511 23.637C98.6531 23.161 98.0161 22.524 97.5401 21.726C97.0781 20.928 96.8471 20.039 96.8471 19.059C96.8471 18.079 97.0781 17.197 97.5401 16.413C98.0161 15.629 98.6531 15.006 99.4511 14.544C100.249 14.068 101.138 13.83 102.118 13.83C103.112 13.83 104.008 14.061 104.806 14.523C105.604 14.985 106.234 15.615 106.696 16.413C107.172 17.197 107.41 18.079 107.41 19.059C107.41 20.039 107.172 20.928 106.696 21.726C106.234 22.524 105.604 23.161 104.806 23.637C104.008 24.099 103.112 24.33 102.118 24.33ZM102.118 22.104C102.692 22.104 103.196 21.978 103.63 21.726C104.078 21.46 104.421 21.096 104.659 20.634C104.911 20.172 105.037 19.647 105.037 19.059C105.037 18.471 104.911 17.953 104.659 17.505C104.407 17.057 104.064 16.707 103.63 16.455C103.196 16.189 102.692 16.056 102.118 16.056C101.558 16.056 101.054 16.189 100.606 16.455C100.172 16.707 99.8291 17.057 99.5771 17.505C99.3391 17.953 99.2201 18.471 99.2201 19.059C99.2201 19.647 99.3391 20.172 99.5771 20.634C99.8291 21.096 100.172 21.46 100.606 21.726C101.054 21.978 101.558 22.104 102.118 22.104Z" fill="#202740"/>
<path d="M109.331 24.12V14.04H111.641V24.12H109.331ZM111.641 18.513L110.843 18.114C110.843 16.84 111.123 15.811 111.683 15.027C112.257 14.229 113.118 13.83 114.266 13.83C114.77 13.83 115.225 13.921 115.631 14.103C116.037 14.285 116.415 14.579 116.765 14.985L115.253 16.539C115.071 16.343 114.868 16.203 114.644 16.119C114.42 16.035 114.161 15.993 113.867 15.993C113.223 15.993 112.691 16.196 112.271 16.602C111.851 17.008 111.641 17.645 111.641 18.513Z" fill="#202740"/>
<path d="M119.457 24.12V9.84H121.767V24.12H119.457ZM117.042 16.14V14.04H124.182V16.14H117.042Z" fill="#202740"/>
<path d="M129.794 24.33C128.884 24.33 128.058 24.099 127.316 23.637C126.588 23.175 126.007 22.552 125.573 21.768C125.153 20.97 124.943 20.081 124.943 19.101C124.943 18.107 125.153 17.218 125.573 16.434C126.007 15.636 126.588 15.006 127.316 14.544C128.058 14.068 128.884 13.83 129.794 13.83C130.564 13.83 131.243 13.998 131.831 14.334C132.433 14.656 132.909 15.104 133.259 15.678C133.609 16.252 133.784 16.903 133.784 17.631V20.529C133.784 21.257 133.609 21.908 133.259 22.482C132.923 23.056 132.454 23.511 131.852 23.847C131.25 24.169 130.564 24.33 129.794 24.33ZM130.172 22.146C131.026 22.146 131.712 21.859 132.23 21.285C132.762 20.711 133.028 19.976 133.028 19.08C133.028 18.478 132.909 17.946 132.671 17.484C132.433 17.022 132.097 16.665 131.663 16.413C131.243 16.147 130.746 16.014 130.172 16.014C129.612 16.014 129.115 16.147 128.681 16.413C128.261 16.665 127.925 17.022 127.673 17.484C127.435 17.946 127.316 18.478 127.316 19.08C127.316 19.682 127.435 20.214 127.673 20.676C127.925 21.138 128.261 21.502 128.681 21.768C129.115 22.02 129.612 22.146 130.172 22.146ZM132.881 24.12V21.411L133.28 18.954L132.881 16.518V14.04H135.191V24.12H132.881Z" fill="#202740"/>
<path d="M137.755 24.12V9H140.065V24.12H137.755Z" fill="#202740"/>
<path d="M145.933 24.33C145.373 24.33 144.834 24.26 144.316 24.12C143.798 23.966 143.322 23.756 142.888 23.49C142.454 23.21 142.076 22.874 141.754 22.482L143.224 21.012C143.574 21.418 143.973 21.726 144.421 21.936C144.883 22.132 145.401 22.23 145.975 22.23C146.493 22.23 146.885 22.153 147.151 21.999C147.417 21.845 147.55 21.621 147.55 21.327C147.55 21.019 147.424 20.781 147.172 20.613C146.92 20.445 146.591 20.305 146.185 20.193C145.793 20.067 145.373 19.941 144.925 19.815C144.491 19.689 144.071 19.521 143.665 19.311C143.273 19.087 142.951 18.786 142.699 18.408C142.447 18.03 142.321 17.54 142.321 16.938C142.321 16.294 142.468 15.741 142.762 15.279C143.07 14.817 143.497 14.46 144.043 14.208C144.603 13.956 145.268 13.83 146.038 13.83C146.85 13.83 147.564 13.977 148.18 14.271C148.81 14.551 149.335 14.978 149.755 15.552L148.285 17.022C147.991 16.658 147.655 16.385 147.277 16.203C146.899 16.021 146.465 15.93 145.975 15.93C145.513 15.93 145.156 16 144.904 16.14C144.652 16.28 144.526 16.483 144.526 16.749C144.526 17.029 144.652 17.246 144.904 17.4C145.156 17.554 145.478 17.687 145.87 17.799C146.276 17.911 146.696 18.037 147.13 18.177C147.578 18.303 147.998 18.485 148.39 18.723C148.796 18.947 149.125 19.255 149.377 19.647C149.629 20.025 149.755 20.522 149.755 21.138C149.755 22.118 149.412 22.895 148.726 23.469C148.04 24.043 147.109 24.33 145.933 24.33Z" fill="#202740"/>
</svg>
