<svg height='100px' width='100px'  fill="#9c9c9c" xmlns="http://www.w3.org/2000/svg" viewBox="0 0 70 70" x="0px" y="0px"><title>02</title><path d="M30.24,69.51a30.24,30.24,0,1,1,12-58,1,1,0,1,1-.8,1.83A28,28,0,0,0,30.24,11a28.18,28.18,0,1,0,27.5,21.81,1,1,0,0,1,1.95-.45A30.29,30.29,0,0,1,30.24,69.51Z"></path><path d="M17.42,53.08a1,1,0,0,1-.7-1.7L29.24,38.86v-17a1,1,0,0,1,2,0V39.27a1,1,0,0,1-.3.71L18.13,52.79A1,1,0,0,1,17.42,53.08Z"></path><path d="M57,33.71A16.84,16.84,0,0,1,53,.52a1,1,0,0,1,1,1.63A14.82,14.82,0,0,0,65.21,26.67a14.7,14.7,0,0,0,3.55-.45,1,1,0,0,1,1.09.45,1,1,0,0,1-.09,1.18A16.85,16.85,0,0,1,57,33.71ZM50.58,3.49A14.84,14.84,0,1,0,66,28.65l-.8,0A16.83,16.83,0,0,1,50.58,3.49Z"></path></svg>